<svg id="Слой_1" data-name="Слой 1" xmlns="http://www.w3.org/2000/svg" xmlns:xlink="http://www.w3.org/1999/xlink" viewBox="0 0 601 130">

<defs>
    <style>
        .cls-1 {
            font-size: 108.13px;
            font-family: Inter28pt-Bold, "Inter 28pt";
            font-weight:700 ;
        }
        .cls-2 {
            letter-spacing: -0.02em;
        }
        .cls-3 { 
            fill: url(#gradient);
        }
    </style>

    <linearGradient id="gradient" x1="139.28" y1="226.56" x2="471.64" y2="-105.79" gradientUnits="userSpaceOnUse">
        <stop offset="0" stop-color="#0094d8"/><stop offset="1" stop-color="#ec297b"/>
    </linearGradient>
</defs>



<path class="cls-3" d="M6.31,93.59V37.1H21.2l.15,13h-1a21.45,21.45,0,0,1,4.12-8,17.17,17.17,0,0,1,6.23-4.67A18.7,18.7,0,0,1,38.25,36a16.52,16.52,0,0,1,10.88,3.77,17,17,0,0,1,5.7,10.59H53.14A17.88,17.88,0,0,1,63.73,37.68,21.14,21.14,0,0,1,72.2,36a19.58,19.58,0,0,1,9.64,2.35,16.59,16.59,0,0,1,6.67,6.81A22.39,22.39,0,0,1,90.94,56V93.59H75.37V58.9q0-5-2.72-7.5a9.63,9.63,0,0,0-6.73-2.48,9.87,9.87,0,0,0-5.2,1.32,8.82,8.82,0,0,0-3.38,3.67,11.88,11.88,0,0,0-1.19,5.47V93.59h-15V58.48a9.4,9.4,0,0,0-2.59-7,9.08,9.08,0,0,0-6.7-2.59,9.73,9.73,0,0,0-5,1.3A9.4,9.4,0,0,0,23.23,54a12.58,12.58,0,0,0-1.35,6.07V93.59Z"/>

<path class="cls-3" d="M128.27,94.86a28.77,28.77,0,0,1-14.94-3.75,25.51,25.51,0,0,1-9.79-10.38,32.47,32.47,0,0,1-3.46-15.28,32.31,32.31,0,0,1,3.51-15.31,26.34,26.34,0,0,1,9.71-10.43,27.11,27.11,0,0,1,14.39-3.78A29,29,0,0,1,138.78,38a25.17,25.17,0,0,1,8.68,5.89,26.55,26.55,0,0,1,5.68,9.19,34,34,0,0,1,2,12V69.3H105.83V59.38H147.6l-7.08,2.43a17,17,0,0,0-1.5-7.45,11.26,11.26,0,0,0-4.31-4.83,14.09,14.09,0,0,0-13.49,0,11.44,11.44,0,0,0-4.35,4.8,16.33,16.33,0,0,0-1.53,7.32v6.86a17.59,17.59,0,0,0,1.58,7.76,11.47,11.47,0,0,0,4.59,5,13.93,13.93,0,0,0,7.18,1.77,15.69,15.69,0,0,0,5.31-.84,10.39,10.39,0,0,0,4-2.46A9.69,9.69,0,0,0,140.31,76l14.2.63a20.12,20.12,0,0,1-4.75,9.48,25,25,0,0,1-9.19,6.42A31.64,31.64,0,0,1,128.27,94.86Z"/>

<path class="cls-3" d="M190.31,116.5A36.48,36.48,0,0,1,177,114.34a20.8,20.8,0,0,1-8.71-6,19,19,0,0,1-4.09-9l14.68-.84a8,8,0,0,0,2.11,3.46,10.3,10.3,0,0,0,3.88,2.32,16.28,16.28,0,0,0,5.41.82q5.81,0,9-3T202.45,93v-9h-.31a16.69,16.69,0,0,1-3.86,5.2,15.92,15.92,0,0,1-5.51,3.22,21.65,21.65,0,0,1-7.05,1.08,22.66,22.66,0,0,1-12.57-3.51,23.55,23.55,0,0,1-8.5-9.9,34.37,34.37,0,0,1-3.06-15,35.36,35.36,0,0,1,3.09-15.29,24.17,24.17,0,0,1,8.52-10.11A22,22,0,0,1,185.61,36a20.45,20.45,0,0,1,7.1,1.16,17.72,17.72,0,0,1,5.57,3.3,18.09,18.09,0,0,1,4,5.1h.22V37.1h15.41V91.79q0,8.67-3.51,14.1a20.8,20.8,0,0,1-9.71,8A37.26,37.26,0,0,1,190.31,116.5Zm-.37-35.42a12,12,0,0,0,6.89-2,12.68,12.68,0,0,0,4.51-5.65,21.63,21.63,0,0,0,1.59-8.64,21.61,21.61,0,0,0-1.59-8.63,13,13,0,0,0-4.51-5.7,11.81,11.81,0,0,0-6.89-2,11.46,11.46,0,0,0-6.68,1.95A12.36,12.36,0,0,0,178.93,56a23.22,23.22,0,0,0-1.5,8.79,23,23,0,0,0,1.5,8.77,12.16,12.16,0,0,0,4.33,5.57A11.52,11.52,0,0,0,189.94,81.08Z"/>

<path class="cls-3" d="M246.38,94.59a24.86,24.86,0,0,1-9.9-1.87,15.27,15.27,0,0,1-6.86-5.65,16.59,16.59,0,0,1-2.51-9.37,16.48,16.48,0,0,1,1.74-8,13.82,13.82,0,0,1,4.81-5.09,25,25,0,0,1,7-3A54.08,54.08,0,0,1,249,60.22c3.41-.32,6.13-.63,8.16-.95a11.08,11.08,0,0,0,4.38-1.4,3.07,3.07,0,0,0,1.34-2.72v-.31A6.62,6.62,0,0,0,261.77,51a7.21,7.21,0,0,0-3.11-2.48,12.36,12.36,0,0,0-4.94-.89,13.73,13.73,0,0,0-5.12.89,8.48,8.48,0,0,0-3.51,2.51,7.7,7.7,0,0,0-1.61,3.72l-14.63-.52a18.88,18.88,0,0,1,3.8-9.72,20.43,20.43,0,0,1,8.61-6.28A33.84,33.84,0,0,1,254.09,36a36.48,36.48,0,0,1,10,1.27A22.34,22.34,0,0,1,271.75,41a16.18,16.18,0,0,1,4.88,6,19.16,19.16,0,0,1,1.69,8.28V93.59H263.17V85.67h-.26a18.1,18.1,0,0,1-3.7,4.7,15.41,15.41,0,0,1-5.36,3.11A22.44,22.44,0,0,1,246.38,94.59Zm4.33-10.87a14.34,14.34,0,0,0,6.52-1.4A10.07,10.07,0,0,0,263,73.05V67.3a8.72,8.72,0,0,1-1.82.71c-.79.23-1.7.45-2.72.66s-2.11.41-3.27.61-2.33.38-3.49.55a22.73,22.73,0,0,0-4.88,1.29,8.64,8.64,0,0,0-3.46,2.38,6.16,6.16,0,0,0-.19,7.23,6.8,6.8,0,0,0,3,2.22A12.41,12.41,0,0,0,250.71,83.72Z"/>

<path class="cls-3" d="M321.36,37.1V49.29H285.08V37.1Zm-27-15H310V76.38q0,2.79,1.17,3.93c.77.76,2.2,1.14,4.27,1.14l3,0c1.2,0,2.11,0,2.75-.08l.47,12.14c-1.09.11-2.49.18-4.2.22s-3.4,0-5.09,0q-9.13,0-13.57-3.75t-4.43-11.46Z"/>

<path class="cls-3" d="M337.51,30a8.81,8.81,0,0,1-6.31-2.38,7.8,7.8,0,0,1-2.5-5.91,7.74,7.74,0,0,1,2.5-5.89,9.69,9.69,0,0,1,12.65,0,7.7,7.7,0,0,1,2.53,5.89,7.75,7.75,0,0,1-2.53,5.91A8.88,8.88,0,0,1,337.51,30Zm-7.76,63.62V37.1h15.58V93.59Z"/>

<path class="cls-3" d="M356.47,93.59V83.35l28-33.58v-.21H356.68V37.1H403V48L375.79,81v.21h27.72V93.59Z"/>

<path class="cls-3" d="M438,94.86A28.84,28.84,0,0,1,423,91.11a25.58,25.58,0,0,1-9.79-10.38,32.6,32.6,0,0,1-3.46-15.28,32.31,32.31,0,0,1,3.51-15.31A26.29,26.29,0,0,1,423,39.71a27.08,27.08,0,0,1,14.39-3.78A29,29,0,0,1,448.49,38a25.21,25.21,0,0,1,8.69,5.89,26.7,26.7,0,0,1,5.68,9.19,34.19,34.19,0,0,1,2,12V69.3H415.55V59.38h41.76l-7.07,2.43a17,17,0,0,0-1.51-7.45,11.23,11.23,0,0,0-4.3-4.83,14.09,14.09,0,0,0-13.49,0,11.4,11.4,0,0,0-4.36,4.8,16.33,16.33,0,0,0-1.53,7.32v6.86a17.73,17.73,0,0,0,1.58,7.76,11.43,11.43,0,0,0,4.6,5,13.9,13.9,0,0,0,7.18,1.77,15.64,15.64,0,0,0,5.3-.84,10.51,10.51,0,0,0,4-2.46A9.81,9.81,0,0,0,450,76l14.2.63a20.21,20.21,0,0,1-4.75,9.48,25.11,25.11,0,0,1-9.19,6.42A31.71,31.71,0,0,1,438,94.86Z"/>

<path class="cls-3" d="M473.78,93.59V37.1h15.05v9.71h.27A14.11,14.11,0,0,1,494,39.13a14.46,14.46,0,0,1,8.79-2.51c.92,0,1.77,0,2.56.08s1.51.11,2.14.18V50.3q-.9-.11-2.82-.24c-1.29-.09-2.58-.13-3.88-.13a11.78,11.78,0,0,0-5.89,1.47,10.27,10.27,0,0,0-4.09,4.31,14.75,14.75,0,0,0-1.48,6.94V93.59Z"/>

<path class="cls-3" d="M534.61,94.65a20.37,20.37,0,0,1-10.38-2.59,17.25,17.25,0,0,1-6.89-7.52,26.77,26.77,0,0,1-2.43-11.91V37.1h15.58V69.78c0,3.69.91,6.54,2.74,8.52a9.83,9.83,0,0,0,7.61,3,11.83,11.83,0,0,0,5.75-1.35,9.41,9.41,0,0,0,3.91-4.14,15.42,15.42,0,0,0,1.43-7V37.1H567.5V93.59H552.29l0-14.57h2.27a25.84,25.84,0,0,1-7.44,11.51Q542.21,94.64,534.61,94.65Z"/>

<path class="cls-3" d="M586.88,30a8.78,8.78,0,0,1-6.31-2.38,7.81,7.81,0,0,1-2.51-5.91,7.75,7.75,0,0,1,2.51-5.89,9.67,9.67,0,0,1,12.64,0,7.7,7.7,0,0,1,2.54,5.89,7.76,7.76,0,0,1-2.54,5.91A8.86,8.86,0,0,1,586.88,30Zm-7.76,63.62V37.1h15.57V93.59Z"/>

</svg>